<svg xmlns="http://www.w3.org/2000/svg" xmlns:xlink="http://www.w3.org/1999/xlink" xmlns:svgjs="http://svgjs.com/svgjs" version="1.1" width="512" height="512" x="0" y="0" viewBox="0 0 512 512" style="enable-background:new 0 0 512 512" xml:space="preserve" class=""><g><path fill="#ec1415" d="M455.998 408.54C484.339 368.567 501 319.73 501 267c0-135.31-109.69-245-245-245S11 131.69 11 267c0 52.73 16.661 101.567 45.002 141.54z" data-original="#ff0363" class=""/><path fill="#2a428b" d="M436.002 433.2A246.136 246.136 0 0 0 456 408.54V40c0-16.57-13.43-30-30-30H86c-16.57 0-30 13.43-30 30v368.54a246.276 246.276 0 0 0 19.998 24.66z" data-original="#2a428b" class=""/><path fill="#f9f2f2" d="M436 150v-40.39c0-3.36-.35-6.68-1.03-9.92-.61-2.93-1.5-5.8-2.65-8.56a48.29 48.29 0 0 0-10.46-15.67l-31.32-31.32a48.33 48.33 0 0 0-31.73-14.08c-.8-.02-1.61-.06-2.42-.06H86c-5.52 0-10 4.48-10 10v110l7.5 7.5L76 165v268.2a246.027 246.027 0 0 0 50.507 41.8l27.901 7.5v7.493C185.358 504.117 219.756 512 256 512s70.642-7.883 101.592-22.007V482.5l27.901-7.5A246.059 246.059 0 0 0 436 433.2V165l-7.5-7.5z" data-original="#f9f2f2" class=""/><path fill="#ede3dd" d="M76 40v110l7.5 7.5L76 165v268.2a245.51 245.51 0 0 0 50.507 41.809V475l4.493 1.208V40c0-5.52 4.48-10 10-10H86c-5.52 0-10 4.48-10 10z" data-original="#ede3dd" class=""/><path fill="#fd77a6" d="M280 88h-12V70h-24v18h-12a6 6 0 0 0-6 6v12a6 6 0 0 0 6 6h12v12a6 6 0 0 0 6 6h12a6 6 0 0 0 6-6v-12h12a6 6 0 0 0 6-6V94a6 6 0 0 0-6-6z" data-original="#fd77a6" class=""/><path fill="#fe3d97" d="M259.134 106V94a6 6 0 0 1 6-6H268V70h-24v18h-12a6 6 0 0 0-6 6v12a6 6 0 0 0 6 6h12v12a6 6 0 0 0 6 6h12a6 6 0 0 0 6-6v-12h-2.866a6 6 0 0 1-6-6z" data-original="#fe3d97" class=""/><path fill="#ede3dd" d="M412.301 85.907h-16.408c-8.726 0-15.8-7.074-15.8-15.8V53.699C380.093 40.61 369.482 30 356.394 30 400.359 30 436 65.641 436 109.607c0-13.089-10.611-23.7-23.699-23.7z" data-original="#ede3dd" class=""/><path fill="#6ad9fb" d="M346 40H166c-5.523 0-10-4.477-10-10V10c0-5.523 4.477-10 10-10h180c5.523 0 10 4.477 10 10v20c0 5.523-4.477 10-10 10z" data-original="#6ad9fb"/><path fill="#02c0fc" d="M226 30V10c0-5.523 4.477-10 10-10h-70c-5.523 0-10 4.477-10 10v20c0 5.523 4.477 10 10 10h70c-5.523 0-10-4.477-10-10z" data-original="#02c0fc" class=""/><path fill="#6ad9fb" d="M255.999 75c-16.217 0-24.429-2.737-32.371-5.385C216.508 67.242 209.783 65 196 65h-12.5V50H196c16.217 0 24.43 2.737 32.372 5.385 7.12 2.374 13.845 4.615 27.627 4.615 13.783 0 20.509-2.242 27.629-4.615C291.57 52.737 299.783 50 316 50h12.5v15H316c-13.783 0-20.508 2.242-27.628 4.615C280.43 72.263 272.217 75 255.999 75z" data-original="#6ad9fb"/><path fill="#02c0fc" d="M256 75a7.5 7.5 0 0 1 0-15h-.001c-13.782 0-20.507-2.242-27.627-4.615C220.43 52.737 212.217 50 196 50h-12.5v15H196c13.783 0 20.508 2.242 27.628 4.615C231.57 72.263 239.782 75 256 75c-.001 0 0 0 0 0z" data-original="#02c0fc" class=""/><path fill="#6ad9fb" d="M183.5 15a7.5 7.5 0 0 1 7.5 7.5v45a7.5 7.5 0 0 1-15 0v-45a7.5 7.5 0 0 1 7.5-7.5z" data-original="#6ad9fb"/><path fill="#ade9f7" d="M328.5 15a7.5 7.5 0 0 1 7.5 7.5v45a7.5 7.5 0 0 1-15 0v-45a7.5 7.5 0 0 1 7.5-7.5z" data-original="#ade9f7" class=""/><path fill="#ddd1cc" d="M386 210H183.5a7.5 7.5 0 0 1 0-15H386z" data-original="#ddd1cc" class=""/><path fill="#c9bdb9" d="M226 202.5a7.5 7.5 0 0 1 7.5-7.5h-50a7.5 7.5 0 0 0 0 15h50a7.5 7.5 0 0 1-7.5-7.5z" data-original="#c9bdb9" class=""/><path fill="#ddd1cc" d="M386 245H183.5a7.5 7.5 0 0 1 0-15H386z" data-original="#ddd1cc" class=""/><path fill="#c9bdb9" d="M226 237.5a7.5 7.5 0 0 1 7.5-7.5h-50a7.5 7.5 0 0 0 0 15h50a7.5 7.5 0 0 1-7.5-7.5z" data-original="#c9bdb9" class=""/><path fill="#ddd1cc" d="M398.5 280h-215a7.5 7.5 0 0 1 0-15h215a7.5 7.5 0 0 1 0 15z" data-original="#ddd1cc" class=""/><path fill="#c9bdb9" d="M226 272.5a7.5 7.5 0 0 1 7.5-7.5h-50a7.5 7.5 0 0 0 0 15h50a7.5 7.5 0 0 1-7.5-7.5z" data-original="#c9bdb9" class=""/><path fill="#ddd1cc" d="M398.5 315h-215a7.5 7.5 0 0 1 0-15h215a7.5 7.5 0 0 1 0 15z" data-original="#ddd1cc" class=""/><path fill="#c9bdb9" d="M226 307.5a7.5 7.5 0 0 1 7.5-7.5h-50a7.5 7.5 0 0 0 0 15h50a7.5 7.5 0 0 1-7.5-7.5z" data-original="#c9bdb9" class=""/><path fill="#ddd1cc" d="M398.5 350h-215a7.5 7.5 0 0 1 0-15h215a7.5 7.5 0 0 1 0 15z" data-original="#ddd1cc" class=""/><path fill="#c9bdb9" d="M226 342.5a7.5 7.5 0 0 1 7.5-7.5h-50a7.5 7.5 0 0 0 0 15h50a7.5 7.5 0 0 1-7.5-7.5z" data-original="#c9bdb9" class=""/><path fill="#ddd1cc" d="M398.5 385h-215a7.5 7.5 0 0 1 0-15h215a7.5 7.5 0 0 1 0 15z" data-original="#ddd1cc" class=""/><path fill="#c9bdb9" d="M226 377.5a7.5 7.5 0 0 1 7.5-7.5h-50a7.5 7.5 0 0 0 0 15h50a7.5 7.5 0 0 1-7.5-7.5z" data-original="#c9bdb9" class=""/><path fill="#ddd1cc" d="M398.5 420h-285a7.5 7.5 0 0 1 0-15h285a7.5 7.5 0 0 1 0 15z" data-original="#ddd1cc" class=""/><path fill="#c9bdb9" d="M226 412.5a7.5 7.5 0 0 1 7.5-7.5h-120a7.5 7.5 0 0 0 0 15h120a7.5 7.5 0 0 1-7.5-7.5z" data-original="#c9bdb9" class=""/><path fill="#ddd1cc" d="M398.5 455h-285a7.5 7.5 0 0 1 0-15h285a7.5 7.5 0 0 1 0 15zM385.493 475H126.507a244.464 244.464 0 0 0 27.901 15h203.184a244.307 244.307 0 0 0 27.901-15zM147.667 245h-33.333a8.333 8.333 0 0 1-8.333-8.333v-33.333a8.333 8.333 0 0 1 8.333-8.333h33.333a8.333 8.333 0 0 1 8.333 8.333v33.333a8.333 8.333 0 0 1-8.333 8.333z" data-original="#ddd1cc" class=""/><path fill="#2a428b" d="M131 237.586a7.478 7.478 0 0 1-5.304-2.197l-8.75-8.75a7.5 7.5 0 0 1 10.607-10.606l3.446 3.447 14.868-14.869a7.5 7.5 0 0 1 10.607 10.606l-20.172 20.172a7.47 7.47 0 0 1-5.302 2.197z" data-original="#2a428b" class=""/><path fill="#ddd1cc" d="M147.667 315h-33.333a8.333 8.333 0 0 1-8.333-8.333v-33.333a8.333 8.333 0 0 1 8.333-8.333h33.333a8.333 8.333 0 0 1 8.333 8.333v33.333a8.333 8.333 0 0 1-8.333 8.333z" data-original="#ddd1cc" class=""/><path fill="#2a428b" d="M131 307.586a7.478 7.478 0 0 1-5.304-2.197l-8.75-8.75a7.5 7.5 0 0 1 10.607-10.606l3.446 3.447 14.868-14.869a7.5 7.5 0 0 1 10.607 10.606l-20.172 20.172a7.47 7.47 0 0 1-5.302 2.197z" data-original="#2a428b" class=""/><path fill="#ddd1cc" d="M147.667 385h-33.333a8.333 8.333 0 0 1-8.333-8.333v-33.333a8.333 8.333 0 0 1 8.333-8.333h33.333a8.333 8.333 0 0 1 8.333 8.333v33.333a8.333 8.333 0 0 1-8.333 8.333z" data-original="#ddd1cc" class=""/><path fill="#2a428b" d="M131 377.586a7.478 7.478 0 0 1-5.304-2.197l-8.75-8.75a7.5 7.5 0 0 1 10.607-10.606l3.446 3.447 14.868-14.869a7.5 7.5 0 0 1 10.607 10.606l-20.172 20.172a7.47 7.47 0 0 1-5.302 2.197z" data-original="#2a428b" class=""/><path fill="#c9bdb9" d="M226 447.5a7.5 7.5 0 0 1 7.5-7.5h-120a7.5 7.5 0 0 0 0 15h120a7.5 7.5 0 0 1-7.5-7.5z" data-original="#c9bdb9" class=""/><path fill="#ddd1cc" d="M233.5 475H126.507a244.464 244.464 0 0 0 27.901 15H233.5a7.5 7.5 0 0 1 0-15zM76 150h360v15H76z" data-original="#ddd1cc" class=""/><path fill="#c9bdb9" d="M76 150h55v15H76z" data-original="#c9bdb9" class=""/><path fill="#ddd1cc" d="M198.5 130h-85a7.5 7.5 0 0 1 0-15h85a7.5 7.5 0 0 1 0 15z" data-original="#ddd1cc" class=""/><path fill="#c9bdb9" d="M146 122.5a7.5 7.5 0 0 1 7.5-7.5h-40a7.5 7.5 0 0 0 0 15h40a7.5 7.5 0 0 1-7.5-7.5z" data-original="#c9bdb9" class=""/><path fill="#ddd1cc" d="M398.5 130h-85a7.5 7.5 0 0 1 0-15h85a7.5 7.5 0 0 1 0 15z" data-original="#ddd1cc" class=""/><path fill="#c9bdb9" d="M346 122.5a7.5 7.5 0 0 1 7.5-7.5h-40a7.5 7.5 0 0 0 0 15h40a7.5 7.5 0 0 1-7.5-7.5z" data-original="#c9bdb9" class=""/><path fill="#fef156" d="M329.846 315.915 492.06 153.702c11.66-11.66 12.02-30.653.46-42.413a35.156 35.156 0 0 0-.473-.473c-11.76-11.559-30.753-11.2-42.413.46L287.42 273.489z" data-original="#fef156" class=""/><path fill="#ffd402" d="m358.933 201.976-71.513 71.513 42.426 42.426 71.511-71.511c-11.716 11.712-30.708 11.711-42.423-.003-11.714-11.716-11.715-30.709-.001-42.425z" data-original="#ffd402"/><path fill="#ffd402" d="M498.388 119.089a38.719 38.719 0 0 0-14.142-14.142L301.562 287.631l14.142 14.142z" data-original="#ffd402"/><path fill="#ffc242" d="M358.935 244.401a29.943 29.943 0 0 1-5.859-8.283l-51.514 51.514 14.142 14.142 51.514-51.514a29.928 29.928 0 0 1-8.283-5.859z" data-original="#ffc242"/><path fill="#ffc7ab" d="m329.846 315.915-64.316 33.23c-6.301 3.256-13.118-3.388-10.026-9.771l31.915-65.885c24.455-2.676 45.103 17.972 42.427 42.426z" data-original="#ffc7ab" class=""/><path fill="#2a428b" d="m265.531 349.145 29.763-15.377a29.44 29.44 0 0 0-23.76-24.749l-1.215-.226-14.814 30.581c-3.092 6.383 3.724 13.027 10.026 9.771z" data-original="#2a428b" class=""/></g></svg>