<svg xmlns="http://www.w3.org/2000/svg" xmlns:xlink="http://www.w3.org/1999/xlink" xmlns:svgjs="http://svgjs.com/svgjs" version="1.1" width="512" height="512" x="0" y="0" viewBox="0 0 512 512" style="enable-background:new 0 0 512 512" xml:space="preserve" class=""><g><path fill="#ecbd83" d="M123.871 445.935v57.806a8.258 8.258 0 0 0 8.258 8.258h9.746a8.26 8.26 0 0 0 8.098-6.639l11.885-59.426L143.5 433.5z" data-original="#ecbd83"/><path fill="#e2a975" d="m165.161 429.419-41.29-16.516v33.032h37.987z" data-original="#e2a975"/><path fill="#ff8086" d="M355.325 0H181.211C133 0 108.486 30.681 113 65.283l48.875 300.208-13.23 38.638h214.712l11.306-38.638 37.983-300.208C417.159 30.681 390.22 0 355.325 0z" data-original="#ff8086" class=""/><path fill="#e5646e" d="M368.908 330.323H171.983c-8.32 0-15.341-6.189-16.385-14.443L123.891 65.283C119.377 30.681 146.317 0 181.211 0h-24.536C121.78 0 94.841 30.681 99.354 65.283l37.984 300.208 11.306 38.638h24.536l-7.098-24.258H357.11c8.296 0 15.304-6.154 16.377-14.38l3.6-25.768c.694-4.967-3.164-9.4-8.179-9.4z" data-original="#e5646e"/><path fill="#ecbd83" d="M388.129 445.935v57.806a8.258 8.258 0 0 1-8.258 8.258h-9.746a8.26 8.26 0 0 1-8.098-6.639l-11.885-59.426L368.5 433.5z" data-original="#ecbd83"/><path fill="#e2a975" d="m346.839 429.419 41.29-16.516v33.032h-37.987z" data-original="#e2a975"/><path fill="#f5ebcd" d="M338.581 107.355h-33.032c-4.565 0-8.258 3.698-8.258 8.258s3.694 8.258 8.258 8.258h8.258v33.032c0 9.105-7.411 16.516-16.516 16.516h-33.032v-49.548h8.258c4.565 0 8.258-3.698 8.258-8.258s-3.694-8.258-8.258-8.258h-33.032c-4.565 0-8.258 3.698-8.258 8.258s3.694 8.258 8.258 8.258h8.258v49.548H214.71c-9.105 0-16.516-7.411-16.516-16.516v-33.032h8.258c4.565 0 8.258-3.698 8.258-8.258s-3.694-8.258-8.258-8.258H173.42c-4.565 0-8.258 3.698-8.258 8.258s3.694 8.258 8.258 8.258h8.258v33.032c0 18.218 14.815 33.032 33.032 33.032h33.032v49.548h-8.258a8.253 8.253 0 0 0-8.258 8.258 8.253 8.253 0 0 0 8.258 8.258h33.032a8.253 8.253 0 0 0 8.258-8.258 8.253 8.253 0 0 0-8.258-8.258h-8.258v-49.548h33.032c18.218 0 33.032-14.815 33.032-33.032v-33.032h8.258a8.256 8.256 0 0 0 8.258-8.258 8.254 8.254 0 0 0-8.257-8.258z" data-original="#f5ebcd" class=""/><path fill="#ff8086" d="M445.046 281.246c-2.727-11.943-12.433-21.642-24.379-24.362-8.19-1.865-16.03-.684-22.609 2.631-6.872 3.463-11.233 10.502-12.297 18.124l-12.273 87.851c-1.073 8.226-8.081 14.38-16.377 14.38H154.89c-8.296 0-15.304-6.154-16.377-14.38l-12.273-87.85c-1.065-7.622-5.426-14.661-12.297-18.124-6.58-3.316-14.419-4.496-22.609-2.631-6.335 1.442-12.04 4.847-16.408 9.509-3.869 4.129-4.519 9.622-5.8 15.232-4.016 17.58 7.153 32.014 22.207 37.374 6.453 2.298 12.667 9.123 12.667 15.972l6 69.673c0 13.682 10.318 16.855 24 16.855h254.129l23.365-8.597a24.73 24.73 0 0 0 1.409-8.258v-69.673c0-6.849 4.631-12.516 11.083-14.814 15.054-5.359 25.074-21.331 21.06-38.912z" data-original="#ff8086" class=""/><path fill="#e5646e" d="M140.387 412.903c-13.682 0-24.774-11.092-24.774-24.774V325.65c0-4.994-1.7-9.839-4.819-13.738-3.127-3.908-7.559-6.374-12.379-7.721-13.889-3.883-24.092-16.542-24.092-31.674 0-2.071.238-4.158.602-6.123-3.85 4.122-6.694 9.261-7.971 14.853-4.014 17.58 6.005 33.551 21.058 38.911 6.453 2.298 11.085 7.964 11.085 14.814v69.673c0 13.682 11.092 24.774 24.774 24.774h264.258c10.771 0 19.952-6.916 23.365-16.516z" data-original="#e5646e"/></g></svg>